<?xml version="1.0" encoding="UTF-8"?>
<svg version="1.1" xmlns="http://www.w3.org/2000/svg" width="375" height="453">
<path d="M0 0 C3.34146578 0.01852117 6.68265762 0.02050738 10.02416992 0.02026367 C12.14461505 0.02517037 14.2650583 0.03099495 16.38549805 0.0378418 C17.38635941 0.03895462 18.38722076 0.04006744 19.41841125 0.04121399 C20.79201057 0.05078377 20.79201057 0.05078377 22.19335938 0.06054688 C23.40576042 0.06626457 23.40576042 0.06626457 24.64265442 0.07209778 C26.4909668 0.20581055 26.4909668 0.20581055 27.4909668 1.20581055 C27.5891713 3.5044082 27.61467746 5.80610279 27.61401463 8.10679722 C27.61516847 8.84070524 27.61632231 9.57461327 27.61751112 10.33076093 C27.62018476 12.82132383 27.61564953 15.31182372 27.61122131 17.80238342 C27.61165686 19.59340999 27.61253147 21.3844365 27.61381048 23.17546266 C27.61605864 28.1214944 27.6120298 33.06750471 27.60703242 38.01353371 C27.60273268 43.33803759 27.604174 48.66254016 27.60493469 53.98704529 C27.60546023 63.2202235 27.60231032 72.45339468 27.59669685 81.68657112 C27.58858589 95.03636053 27.58596705 108.38614652 27.58470886 121.73593812 C27.58251771 143.39264558 27.5758559 165.04934927 27.56640625 186.70605469 C27.55723377 207.74934877 27.55015214 228.79264183 27.54589844 249.8359375 C27.54563571 251.13203086 27.54537299 252.42812421 27.54510231 253.76349313 C27.54379731 260.26530941 27.54253359 266.7671257 27.5412904 273.268942 C27.53091581 327.24790078 27.51329577 381.22685548 27.4909668 435.20581055 C25.08056489 435.37045884 22.67009899 435.53404941 20.25958443 435.69703293 C19.58016629 435.74355149 18.90074815 435.79007005 18.20074159 435.83799827 C13.70900347 436.14063738 9.25296782 436.3398791 4.75219727 436.36694336 C2.77472 436.38135468 2.77472 436.38135468 0.7572937 436.39605713 C-0.62575093 436.40090479 -2.00879766 436.4051837 -3.3918457 436.40893555 C-4.1120779 436.41176292 -4.8323101 436.4145903 -5.57436752 436.41750336 C-9.37599784 436.43232058 -13.17759183 436.44166325 -16.97924805 436.44604492 C-20.85972116 436.45154769 -24.73984673 436.47566416 -28.62021065 436.50401688 C-31.6505935 436.52279417 -34.68089435 436.52785649 -37.71133041 436.5293808 C-39.1408061 436.53236674 -40.57028182 436.54025382 -41.99969864 436.55356598 C-57.25652792 436.68569262 -70.31503258 434.81831028 -81.79418945 424.06518555 C-94.14964243 410.85524329 -95.66528049 396.60783864 -95.64274597 379.18991089 C-95.64501153 377.89831845 -95.64727708 376.60672602 -95.64961129 375.27599442 C-95.65569846 371.7109824 -95.65559935 368.14599394 -95.65441692 364.58097792 C-95.65421213 360.72804882 -95.65973921 356.87512714 -95.66447449 353.02220154 C-95.67276501 345.48051905 -95.67552862 337.93884438 -95.67608687 330.39715771 C-95.67656285 324.26286969 -95.67862171 318.12858424 -95.68178749 311.99429703 C-95.69059024 294.5814575 -95.69520754 277.16862412 -95.69445702 259.75578235 C-95.69441706 258.81793423 -95.6943771 257.88008612 -95.69433594 256.91381836 C-95.69429506 255.97481765 -95.69425418 255.03581693 -95.69421206 254.06836165 C-95.69380585 238.86008664 -95.70337005 223.65183642 -95.7174743 208.44356857 C-95.73186047 192.80722787 -95.73874323 177.17089923 -95.73788053 161.53455174 C-95.7375493 152.76428437 -95.74026375 143.99404297 -95.75105858 135.22378159 C-95.76019317 127.75480574 -95.76231469 120.28586765 -95.75554916 112.81688862 C-95.75229863 109.01149064 -95.7521737 105.20616497 -95.7609024 101.400774 C-95.77029828 97.26166612 -95.76395307 93.12272349 -95.75627136 88.98361206 C-95.76141493 87.80001315 -95.76655849 86.61641424 -95.77185792 85.3969487 C-95.67085823 60.61146329 -88.87760947 40.13101868 -71.6340332 22.01831055 C-51.56401673 2.53858868 -26.62797734 -0.15332044 0 0 Z " fill="#313656" transform="translate(108.509033203125,5.794189453125)"/>
<path d="M0 0 C1.41270172 -0.00503792 1.41270172 -0.00503792 2.85394287 -0.01017761 C5.98507999 -0.01971683 9.11616368 -0.02163309 12.24731445 -0.02270508 C14.42812624 -0.02591876 16.60893781 -0.02928292 18.78974915 -0.03279114 C23.37562559 -0.03879202 27.96148318 -0.04063037 32.54736328 -0.04003906 C38.38854563 -0.03993811 44.22960459 -0.05351673 50.07075787 -0.07081127 C54.58444254 -0.08200871 59.09809829 -0.0839558 63.61179543 -0.08342934 C65.76249423 -0.08460065 67.91319399 -0.08897409 70.06387901 -0.0967617 C103.13060272 -0.20515755 131.42696784 6.6839215 155.9621582 30.11791992 C176.63769966 50.67882204 186.85881234 79.82215841 187.2980957 108.64526367 C187.24736769 138.24505991 175.73246296 167.04072809 154.9230957 188.14526367 C143.48971267 199.38966517 129.93294597 207.21611644 114.8605957 212.39526367 C114.11656494 212.6539624 113.37253418 212.91266113 112.60595703 213.17919922 C111.87401123 213.42065674 111.14206543 213.66211426 110.38793945 213.91088867 C109.7446167 214.12519531 109.10129395 214.33950195 108.43847656 214.56030273 C101.08507039 216.270364 93.59071592 216.28668322 86.07910156 216.25878906 C85.03415527 216.25893509 83.98920898 216.25908112 82.91259766 216.25923157 C79.48768985 216.25853959 76.06283766 216.2507809 72.63793945 216.24291992 C70.25183644 216.2410532 67.86573305 216.2396305 65.47962952 216.2386322 C59.22106861 216.23482705 52.96253117 216.22501397 46.70397949 216.21392822 C40.3089225 216.20367095 33.91386169 216.19912535 27.51879883 216.1940918 C14.98688782 216.18338981 2.45499301 216.16653173 -10.0769043 216.14526367 C-10.66699219 214.28442383 -10.66699219 214.28442383 -11.0769043 212.14526367 C-9.63549805 209.91870117 -9.63549805 209.91870117 -7.5144043 207.52026367 C8.53848464 188.46447419 10.65645915 167.30784424 10.4230957 143.27026367 C10.41855377 142.18275818 10.41401184 141.09525269 10.40933228 139.97479248 C10.31264656 120.13444735 8.74853753 100.76728446 5.9230957 81.14526367 C5.66863706 79.23405133 5.41580978 77.32262042 5.1652832 75.41088867 C2.03181296 52.33227685 -2.3651686 29.1475025 -10.1237793 7.15698242 C-11.0769043 4.14526367 -11.0769043 4.14526367 -11.0769043 1.14526367 C-7.66315687 -0.56161004 -3.75623775 -0.00190205 0 0 Z " fill="#48598C" transform="translate(161.076904296875,224.854736328125)"/>
<path d="M0 0 C4.53928462 3.73485443 9.08425787 7.61422863 12.875 12.125 C12.875 12.785 12.875 13.445 12.875 14.125 C13.535 14.125 14.195 14.125 14.875 14.125 C31.55278527 36.60010106 38.56973098 63.56435389 35.640625 91.34814453 C35.02538564 95.36237896 34.00545676 99.22957326 32.875 103.125 C32.60816406 104.17171875 32.34132813 105.2184375 32.06640625 106.296875 C28.56648344 119.05214922 22.63701642 131.17841912 13.875 141.125 C13.23304688 141.92035156 12.59109375 142.71570313 11.9296875 143.53515625 C3.13415217 154.0346237 -8.49387788 161.91485538 -21.125 167.125 C-22.27097656 167.61097656 -23.41695313 168.09695312 -24.59765625 168.59765625 C-42.02299101 175.19242005 -66.01356187 175.41039728 -83.23925781 167.99365234 C-97.96394535 161.21084055 -111.13782333 152.08545827 -121.125 139.125 C-121.96224609 138.07699219 -121.96224609 138.07699219 -122.81640625 137.0078125 C-139.5114052 114.82251188 -143.58365979 87.42433185 -140.84082031 60.31640625 C-137.88911206 40.27960921 -128.02156424 22.60058775 -114.125 8.125 C-113.135 7.05765625 -113.135 7.05765625 -112.125 5.96875 C-82.67155857 -24.90985795 -32.76819601 -25.48637467 0 0 Z " fill="#933178" transform="translate(291.125,35.875)"/>
<path d="M0 0 C1.26863388 -0.00262848 1.26863388 -0.00262848 2.56289673 -0.00531006 C5.37056507 -0.00972563 8.17817081 -0.00679004 10.98583984 -0.00341797 C12.93679822 -0.00409147 14.88775651 -0.00506188 16.8387146 -0.00631714 C20.93610429 -0.00779402 25.03347221 -0.00564126 29.13085938 -0.00097656 C34.36959903 0.00469811 39.60828719 0.00145606 44.84702492 -0.00454903 C48.88089379 -0.00817423 52.9147506 -0.00700666 56.94861984 -0.00442123 C58.87902202 -0.00375621 60.80942532 -0.00456551 62.7398262 -0.00690079 C65.44897578 -0.00945695 68.15804394 -0.00554415 70.8671875 0 C72.05362854 -0.00303635 72.05362854 -0.00303635 73.26403809 -0.00613403 C78.19894403 0.01245593 82.93527209 0.43070313 87.82177734 1.12939453 C87.82177734 1.45939453 87.82177734 1.78939453 87.82177734 2.12939453 C77.26177734 2.12939453 66.70177734 2.12939453 55.82177734 2.12939453 C55.49177734 2.78939453 55.16177734 3.44939453 54.82177734 4.12939453 C53.81699593 4.12606361 53.81699593 4.12606361 52.79191589 4.12266541 C45.83304374 4.10057726 38.87418152 4.08547311 31.9152832 4.07446289 C29.31664628 4.06942772 26.71801219 4.06259923 24.11938477 4.05395508 C20.38866475 4.04185391 16.65798212 4.03615812 12.92724609 4.03173828 C11.76154587 4.026577 10.59584564 4.02141571 9.39482117 4.01609802 C8.31392715 4.01602249 7.23303314 4.01594696 6.11938477 4.01586914 C5.1667424 4.01364853 4.21410004 4.01142792 3.23258972 4.00914001 C0.67704236 4.02843271 0.67704236 4.02843271 -2.17822266 5.12939453 C-1.84822266 6.07814453 -1.51822266 7.02689453 -1.17822266 8.00439453 C-0.17822266 11.12939453 -0.17822266 11.12939453 -0.17822266 13.12939453 C-0.83822266 13.78939453 -1.49822266 14.44939453 -2.17822266 15.12939453 C-1.71174808 17.93721264 -1.14291378 20.5718309 -0.42822266 23.31689453 C-0.24517578 24.06003906 -0.06212891 24.80318359 0.12646484 25.56884766 C1.25893107 30.11865035 2.52352445 34.6240169 3.82177734 39.12939453 C6.94373087 50.73444937 8.10350175 63.07811771 9.32177734 75.00439453 C9.56927734 76.55126953 9.56927734 76.55126953 9.82177734 78.12939453 C10.48177734 78.45939453 11.14177734 78.78939453 11.82177734 79.12939453 C11.80115234 80.38751953 11.78052734 81.64564453 11.75927734 82.94189453 C11.75927734 89.9689687 12.55453081 96.90952362 13.38427734 103.87939453 C13.81719257 107.6490871 13.82177734 111.33315267 13.82177734 115.12939453 C13.9778209 116.60292205 14.14313296 118.07547694 14.31396484 119.54736328 C15.08452645 127.76759471 14.97097227 136.00813459 14.95214844 144.2565918 C14.94674334 147.08468878 14.95214358 149.91263021 14.95849609 152.74072266 C14.95783605 154.54606155 14.95655641 156.35140034 14.95458984 158.15673828 C14.95661407 158.99841049 14.95863831 159.8400827 14.96072388 160.70726013 C14.95757172 161.49230423 14.95441956 162.27734833 14.95117188 163.08618164 C14.95037628 163.77248154 14.94958069 164.45878143 14.94876099 165.1658783 C14.81348908 167.25755386 14.36112689 169.10796612 13.82177734 171.12939453 C13.67682874 172.73188185 13.55296931 174.33637313 13.44677734 175.94189453 C13.02605897 180.5163721 11.70032488 183.92144804 9.82177734 188.12939453 C8.20283846 194.37536519 7.44216667 200.71870482 6.82177734 207.12939453 C6.16177734 207.12939453 5.50177734 207.12939453 4.82177734 207.12939453 C4.49177734 206.46939453 4.16177734 205.80939453 3.82177734 205.12939453 C1.84177734 206.11939453 1.84177734 206.11939453 -0.17822266 207.12939453 C0.15177734 209.43939453 0.48177734 211.74939453 0.82177734 214.12939453 C1.81081558 213.96484268 2.79985382 213.80029083 3.81886292 213.63075256 C7.84081772 213.05966977 11.81340795 213.03409482 15.8684082 213.10766602 C16.63996246 213.11727356 17.41151672 213.1268811 18.20645142 213.13677979 C20.73327501 213.1695177 23.25991175 213.20994425 25.78662109 213.25048828 C27.54780944 213.2748141 29.30900453 213.2986564 31.07020569 213.32203674 C35.68815839 213.38463281 40.3059906 213.45376778 44.92382812 213.52429199 C49.64301096 213.59519757 54.36227869 213.65988119 59.08154297 213.72509766 C68.32838109 213.85379412 77.57510381 213.98940277 86.82177734 214.12939453 C86.82177734 214.45939453 86.82177734 214.78939453 86.82177734 215.12939453 C81.45130673 216.02986694 76.29666362 216.26715198 70.85717773 216.24291992 C69.98808777 216.24306595 69.1189978 216.24321198 68.22357178 216.24336243 C65.37216633 216.24266989 62.52082752 216.23490853 59.66943359 216.22705078 C57.68403662 216.22518426 55.69863918 216.22376146 53.71324158 216.22276306 C48.50351679 216.21895634 43.29382016 216.20914188 38.08410645 216.19805908 C32.76164124 216.18780522 27.43917146 216.18325694 22.11669922 216.17822266 C11.68504627 216.16751789 1.25341415 216.15046372 -9.17822266 216.12939453 C-9.76831055 214.26855469 -9.76831055 214.26855469 -10.17822266 212.12939453 C-8.73681641 209.90283203 -8.73681641 209.90283203 -6.61572266 207.50439453 C9.43716628 188.44860505 11.5551408 167.2919751 11.32177734 143.25439453 C11.31723541 142.16688904 11.31269348 141.07938354 11.30801392 139.95892334 C11.2113282 120.11857821 9.64721917 100.75141532 6.82177734 81.12939453 C6.5673187 79.21818219 6.31449142 77.30675127 6.06396484 75.39501953 C2.9304946 52.31640771 -1.46648696 29.13163336 -9.22509766 7.14111328 C-10.17822266 4.12939453 -10.17822266 4.12939453 -10.17822266 1.12939453 C-6.98039725 -0.46951817 -3.51190594 -0.00885177 0 0 Z " fill="#5172A1" transform="translate(160.17822265625,224.87060546875)"/>
<path d="M0 0 C1.2523243 3.51614131 0.75977086 5.26630686 -0.75 8.625 C-4.34727806 17.05184167 -7.11777717 25.55926412 -7.13422108 34.78230381 C-7.13867892 35.94482939 -7.14313676 37.10735498 -7.14772969 38.30510861 C-7.14754533 39.57804475 -7.14736097 40.85098088 -7.14717102 42.16249084 C-7.15047193 43.53181339 -7.15419798 44.90113496 -7.1583125 46.2704553 C-7.16831483 50.03271676 -7.17204644 53.79496226 -7.17470181 57.55723512 C-7.17861011 61.61536292 -7.18818807 65.67347814 -7.19691467 69.7315979 C-7.21666414 79.53165617 -7.22674333 89.33171545 -7.23564246 99.13178864 C-7.24002781 103.74910385 -7.24539398 108.36641792 -7.25063133 112.98373222 C-7.26764202 128.33659788 -7.28213567 143.68946283 -7.28938007 159.04233646 C-7.2912899 163.02521325 -7.29321025 167.00809003 -7.29516602 170.9909668 C-7.29564976 171.98086628 -7.2961335 172.97076577 -7.2966319 173.99066221 C-7.30493029 190.02249218 -7.33026471 206.05424748 -7.36274669 222.08604486 C-7.39583743 238.55280329 -7.41383065 255.01952381 -7.41702431 271.48631567 C-7.41918753 280.72886533 -7.42790865 289.97130611 -7.45348549 299.21382332 C-7.47522 307.08594843 -7.48322939 314.95793822 -7.47351871 322.83008993 C-7.46898197 326.84377027 -7.47082344 330.85717153 -7.49028015 334.87081337 C-7.50796994 338.55189164 -7.50686764 342.23248845 -7.49138286 345.91357224 C-7.48790201 347.8619659 -7.50398958 349.81036494 -7.52098733 351.75868756 C-7.42063644 365.56754356 -3.44294842 375.45222132 6.21875 385.25 C7.10046875 386.11625 7.10046875 386.11625 8 387 C7.01 387.33 6.02 387.66 5 388 C-8.64821676 373.67445239 -11.15874801 360.3349536 -11.13371277 340.98410034 C-11.13597833 339.69250791 -11.13824388 338.40091547 -11.14057809 337.07018387 C-11.14666525 333.50517185 -11.14656615 329.94018339 -11.14538372 326.37516737 C-11.14517892 322.52223828 -11.150706 318.66931659 -11.15544128 314.81639099 C-11.16373181 307.2747085 -11.16649541 299.73303383 -11.16705366 292.19134717 C-11.16752965 286.05705914 -11.16958851 279.92277369 -11.17275429 273.78848648 C-11.18155704 256.37564695 -11.18617434 238.96281357 -11.18542381 221.5499718 C-11.18538386 220.61212369 -11.1853439 219.67427557 -11.18530273 218.70800781 C-11.18526185 217.7690071 -11.18522097 216.83000639 -11.18517885 215.86255111 C-11.18477264 200.6542761 -11.19433684 185.44602587 -11.2084411 170.23775803 C-11.22282726 154.60141732 -11.22971003 138.96508868 -11.22884732 123.32874119 C-11.2285161 114.55847382 -11.23123055 105.78823243 -11.24202538 97.01797104 C-11.25115996 89.54899519 -11.25328149 82.0800571 -11.24651595 74.61107807 C-11.24326543 70.80568009 -11.2431405 67.00035442 -11.2518692 63.19496346 C-11.26126507 59.05585558 -11.25491987 54.91691294 -11.24723816 50.77780151 C-11.25238172 49.5942026 -11.25752529 48.41060369 -11.26282471 47.19113815 C-11.19313976 30.09033882 -8.15769174 15.11178962 0 0 Z " fill="#464664" transform="translate(24,44)"/>
<path d="M0 0 C-0.33 0.99 -0.66 1.98 -1 3 C-1.66 3 -2.32 3 -3 3 C-3 3.66 -3 4.32 -3 5 C-4.70733079 7.06676885 -6.25430557 8.13926257 -8.625 9.4375 C-11.15993424 10.76959042 -11.15993424 10.76959042 -11.8125 13.1875 C-11.9053125 14.0846875 -11.9053125 14.0846875 -12 15 C-12.66 14.67 -13.32 14.34 -14 14 C-18.50669834 16.07064518 -20.88334448 19.24403053 -24 23 C-24.7425 23.33 -25.485 23.66 -26.25 24 C-26.8275 24.33 -27.405 24.66 -28 25 C-28.81584568 28.05908413 -28.81584568 28.05908413 -29 31 C-29.99 31.33 -30.98 31.66 -32 32 C-32.33 32.66 -32.66 33.32 -33 34 C-33.66 34 -34.32 34 -35 34 C-35.309375 34.969375 -35.61875 35.93875 -35.9375 36.9375 C-37 40 -37 40 -38 41 C-37.67 41.66 -37.34 42.32 -37 43 C-37.66 43 -38.32 43 -39 43 C-39.33 44.32 -39.66 45.64 -40 47 C-40.99 47 -41.98 47 -43 47 C-45.78186411 51.59612332 -46.42173167 55.38641617 -46.69140625 60.6328125 C-47.01827173 63.14016034 -47.74942139 64.82027664 -49 67 C-48.01 66.505 -48.01 66.505 -47 66 C-47 67.65 -47 69.3 -47 71 C-47.66 71 -48.32 71 -49 71 C-54.60871497 81.02700881 -52.56744427 98.07748286 -50 109 C-50.99 109.495 -50.99 109.495 -52 110 C-52 109.34 -52 108.68 -52 108 C-52.66 108 -53.32 108 -54 108 C-58.92672371 81.39023711 -53.93520096 53.98608287 -38.87890625 31.51953125 C-35.55190282 27.05816491 -31.85059362 23.01103502 -28 19 C-27.01 17.93265625 -27.01 17.93265625 -26 16.84375 C-20.06027683 10.61662087 -9.20051192 0 0 0 Z " fill="#723F88" transform="translate(205,25)"/>
<path d="M0 0 C3.40004866 3.13073788 4.29973397 5.54854824 4.49609375 10.02734375 C4.5021074 11.99748347 4.48129143 13.96783785 4.4375 15.9375 C4.42428711 16.96858887 4.41107422 17.99967773 4.39746094 19.06201172 C4.20924685 27.06361982 3.23640157 34.2936119 1 42 C0.73316406 43.04671875 0.46632813 44.0934375 0.19140625 45.171875 C-3.30244607 57.90502569 -9.22245924 70.08807367 -18 80 C-18.7115625 80.84175781 -19.423125 81.68351562 -20.15625 82.55078125 C-24.66937526 87.76715034 -29.26569402 92.15629627 -35 96 C-35.66 95.67 -36.32 95.34 -37 95 C-36.52949219 94.62488281 -36.05898438 94.24976563 -35.57421875 93.86328125 C-31.88211118 90.82856757 -29.35598023 88.21596462 -27 84 C-26.34 84 -25.68 84 -25 84 C-25.66 82.35 -26.32 80.7 -27 79 C-23.535 78.505 -23.535 78.505 -20 78 C-19.67 75.69 -19.34 73.38 -19 71 C-17.515 70.505 -17.515 70.505 -16 70 C-16.33 69.01 -16.66 68.02 -17 67 C-15.824375 66.443125 -15.824375 66.443125 -14.625 65.875 C-11.29018435 63.49298882 -10.91150314 61.94984693 -10 58 C-9.62468554 55.67305036 -9.28082798 53.34023315 -9 51 C-7.02 50.505 -7.02 50.505 -5 50 C-4.86722656 49.24074219 -4.73445313 48.48148438 -4.59765625 47.69921875 C-4.42105469 46.70535156 -4.24445313 45.71148437 -4.0625 44.6875 C-3.88847656 43.70136719 -3.71445312 42.71523437 -3.53515625 41.69921875 C-3 39 -3 39 -2 36 C-1.34 36 -0.68 36 0 36 C0.02896822 31.56251365 0.04678788 27.12505153 0.0625 22.6875 C0.07506836 20.79354492 0.07506836 20.79354492 0.08789062 18.86132812 C0.09111328 17.65283203 0.09433594 16.44433594 0.09765625 15.19921875 C0.10289307 14.08377686 0.10812988 12.96833496 0.11352539 11.8190918 C0.12749254 8.91947938 0.12749254 8.91947938 -1 6 C-0.72428861 3.99124558 -0.39764263 1.98821313 0 0 Z " fill="#963062" transform="translate(323,97)"/>
<path d="M0 0 C2.24869392 0.01005184 4.4973922 0.01917378 6.74609375 0.02734375 C12.20582569 0.04917795 17.66539199 0.08248014 23.125 0.125 C23.62 1.61 23.62 1.61 24.125 3.125 C23.44642944 3.12864563 22.76785889 3.13229126 22.06872559 3.13604736 C14.92910977 3.17824861 7.79011452 3.24785076 0.65087891 3.33251953 C-2.00451864 3.36266253 -4.65933611 3.38184427 -7.31494141 3.39599609 C-33.2938957 3.23036538 -33.2938957 3.23036538 -57.25 12.3125 C-58.2390332 12.89451172 -58.2390332 12.89451172 -59.24804688 13.48828125 C-67.8698194 18.72383362 -74.64480303 25.56247409 -81.18359375 33.1796875 C-82.68533769 34.90686644 -84.23496543 36.530104 -85.875 38.125 C-85.43869845 33.34313499 -83.20102823 30.72086128 -80 27.375 C-79.50894775 26.85349365 -79.01789551 26.3319873 -78.51196289 25.79467773 C-56.22008613 2.57175176 -30.60911463 -0.2392395 0 0 Z " fill="#62647A" transform="translate(111.875,5.875)"/>
<path d="M0 0 C4.16304703 1.53476388 6.31504148 4.55692456 8.875 8 C9.31553711 8.58668457 9.75607422 9.17336914 10.20996094 9.77783203 C20.16338604 23.20142628 31.44061512 43.54131544 29.75 60.9375 C29.52899198 62.29669933 29.29134293 63.65412235 29 65 C28.67 65 28.34 65 28 65 C27.67 62.36 27.34 59.72 27 57 C26.67 57 26.34 57 26 57 C25.67 54.36 25.34 51.72 25 49 C23.515 48.505 23.515 48.505 22 48 C22.66 47.34 23.32 46.68 24 46 C23.01 45.01 22.02 44.02 21 43 C21.33 42.01 21.66 41.02 22 40 C21.05950601 35.61102804 20.20369329 33.06440227 17 30 C16.3125 27.3125 16.3125 27.3125 16 25 C15.34 25 14.68 25 14 25 C13.34 22.03 12.68 19.06 12 16 C9.36 15.67 6.72 15.34 4 15 C4.103125 13.9275 4.20625 12.855 4.3125 11.75 C4.40072402 7.85789852 4.40072402 7.85789852 1.5 5.5625 C0.675 5.046875 -0.15 4.53125 -1 4 C-1.99 4.495 -1.99 4.495 -3 5 C-1.125 1.125 -1.125 1.125 0 0 Z " fill="#4B4B71" transform="translate(316,256)"/>
<path d="M0 0 C0.66 0.33 1.32 0.66 2 1 C6.76759158 28.46747924 0.08852418 58.76328651 -15.8125 81.625 C-16.86826632 83.08821558 -17.92829823 84.54841546 -19 86 C-19.66 85.67 -20.32 85.34 -21 85 C-20.41992188 84.16339844 -19.83984375 83.32679688 -19.2421875 82.46484375 C-12.72297572 72.83698553 -5.96558345 61.86288236 -5 50 C-5.66 49.34 -6.32 48.68 -7 48 C-7 47.01 -7 46.02 -7 45 C-6.34 45 -5.68 45 -5 45 C-4.34 42.69 -3.68 40.38 -3 38 C-2.34 38 -1.68 38 -1 38 C-0.67 25.46 -0.34 12.92 0 0 Z " fill="#59587B" transform="translate(345,315)"/>
<path d="M0 0 C20.46204971 1.90344648 39.18735988 13.38726648 54 27 C53.01 27.66 52.02 28.32 51 29 C50.21625 28.505 49.4325 28.01 48.625 27.5 C46.21447673 25.83462035 46.21447673 25.83462035 44 26 C43.505 27.485 43.505 27.485 43 29 C42.20046862 25.71303767 41.90341064 24.28976808 43 21 C41.35 21 39.7 21 38 21 C37.505 19.515 37.505 19.515 37 18 C34.31927234 14.84057098 31.96065955 13.21866448 28 12 C27.01 12 26.02 12 25 12 C22.8125 11 22.8125 11 21 10 C20.01 11.485 20.01 11.485 19 13 C18.34 12.67 17.68 12.34 17 12 C16.375 9.9375 16.375 9.9375 16 8 C14.02 8 12.04 8 10 8 C10 7.01 10 6.02 10 5 C9.01 5 8.02 5 7 5 C3.875 4.1875 3.875 4.1875 1 3 C0.67 2.01 0.34 1.02 0 0 Z " fill="#474972" transform="translate(262,227)"/>
<path d="M0 0 C2.12261076 2.12261076 2.58711498 3.26899902 3.5078125 6.0625 C3.77207031 6.85914063 4.03632813 7.65578125 4.30859375 8.4765625 C4.57800781 9.30929688 4.84742188 10.14203125 5.125 11 C5.40214844 11.83273438 5.67929688 12.66546875 5.96484375 13.5234375 C8 19.71913485 8 19.71913485 8 22 C8.598125 21.67 9.19625 21.34 9.8125 21 C12 20 12 20 15 20 C15.125 27.625 15.125 27.625 14 31 C14.66 31 15.32 31 16 31 C16.66 32.32 17.32 33.64 18 35 C18.66 35 19.32 35 20 35 C20.23074219 35.66386719 20.46148437 36.32773438 20.69921875 37.01171875 C22.72404789 42.49396365 24.46303635 46.15344386 29 50 C29.74636719 50.69996094 30.49273437 51.39992187 31.26171875 52.12109375 C36.2295211 56.75415904 41.1091117 60.61819375 47 64 C46.01 64.495 46.01 64.495 45 65 C24.61390755 55.3825174 11.00033658 35.32462819 3 15 C1.24587098 9.88526691 0 5.41854519 0 0 Z " fill="#663077" transform="translate(152,133)"/>
<path d="M0 0 C-0.33 0.99 -0.66 1.98 -1 3 C-1.66 3 -2.32 3 -3 3 C-3 3.66 -3 4.32 -3 5 C-4.70733079 7.06676885 -6.25430557 8.13926257 -8.625 9.4375 C-11.15993424 10.76959042 -11.15993424 10.76959042 -11.8125 13.1875 C-11.9053125 14.0846875 -11.9053125 14.0846875 -12 15 C-12.66 14.67 -13.32 14.34 -14 14 C-18.50669834 16.07064518 -20.88334448 19.24403053 -24 23 C-24.7425 23.33 -25.485 23.66 -26.25 24 C-26.8275 24.33 -27.405 24.66 -28 25 C-28.81584568 28.05908413 -28.81584568 28.05908413 -29 31 C-29.99 31.33 -30.98 31.66 -32 32 C-32.33 32.66 -32.66 33.32 -33 34 C-33.66 34 -34.32 34 -35 34 C-34.690625 33.4225 -34.38125 32.845 -34.0625 32.25 C-33.07416636 30.15705816 -32.4831387 28.25464725 -32 26 C-32.66 25.67 -33.32 25.34 -34 25 C-9.93619972 0 -9.93619972 0 0 0 Z " fill="#8A408E" transform="translate(205,25)"/>
<path d="M0 0 C1.29647461 -0.00193359 1.29647461 -0.00193359 2.61914062 -0.00390625 C3.52470703 -0.00003906 4.43027344 0.00382813 5.36328125 0.0078125 C6.24951172 0.00394531 7.13574219 0.00007812 8.04882812 -0.00390625 C13.03214079 0.00347097 17.76393837 0.28617474 22.67578125 1.1328125 C22.67578125 1.4628125 22.67578125 1.7928125 22.67578125 2.1328125 C20.77892578 2.33197266 20.77892578 2.33197266 18.84375 2.53515625 C17.183575 2.71336713 15.52341977 2.89176213 13.86328125 3.0703125 C12.61321289 3.20083008 12.61321289 3.20083008 11.33789062 3.33398438 C10.13422852 3.46450195 10.13422852 3.46450195 8.90625 3.59765625 C8.16785889 3.6762085 7.42946777 3.75476074 6.66870117 3.83569336 C4.47308747 4.10433246 4.47308747 4.10433246 1.67578125 5.1328125 C2.00578125 6.0815625 2.33578125 7.0303125 2.67578125 8.0078125 C3.67578125 11.1328125 3.67578125 11.1328125 3.67578125 13.1328125 C3.01578125 13.7928125 2.35578125 14.4528125 1.67578125 15.1328125 C1.65269528 17.35409805 1.65269528 17.35409805 2.05078125 19.7578125 C2.16164062 20.57507813 2.2725 21.39234375 2.38671875 22.234375 C2.48210937 22.86085937 2.5775 23.48734375 2.67578125 24.1328125 C2.34578125 24.1328125 2.01578125 24.1328125 1.67578125 24.1328125 C1.38703125 22.9984375 1.09828125 21.8640625 0.80078125 20.6953125 C0.42953125 19.5196875 0.05828125 18.3440625 -0.32421875 17.1328125 C-0.98421875 16.8028125 -1.64421875 16.4728125 -2.32421875 16.1328125 C-3.39453125 13.515625 -3.39453125 13.515625 -4.44921875 10.2578125 C-4.80242187 9.18789062 -5.155625 8.11796875 -5.51953125 7.015625 C-6.32421875 4.1328125 -6.32421875 4.1328125 -6.32421875 1.1328125 C-3.9890821 -0.03475583 -2.5995897 0.00374542 0 0 Z " fill="#4D76AE" transform="translate(156.32421875,224.8671875)"/>
<path d="M0 0 C6.84094866 4.12397614 12.81991537 8.87696853 18 15 C18 15.66 18 16.32 18 17 C18.66 17 19.32 17 20 17 C30.27253166 30.84333611 40.76000522 50.30273555 40 68 C39.01 67.505 39.01 67.505 38 67 C37.31334924 64.39432529 36.72773573 61.82374917 36.1875 59.1875 C34.5375373 51.71115531 32.27875284 44.94098553 29 38 C28.55914062 37.00484375 28.11828125 36.0096875 27.6640625 34.984375 C21.99855371 22.77692511 12.94923979 12.54312292 2.5 4.125 C1.675 3.42375 0.85 2.7225 0 2 C0 1.34 0 0.68 0 0 Z " fill="#A54775" transform="translate(286,33)"/>
<path d="M0 0 C1.32 0.66 2.64 1.32 4 2 C-4.24709921 8.8800937 -13.53638408 13.08882158 -23.625 16.5 C-24.40705811 16.76731934 -25.18911621 17.03463867 -25.99487305 17.31005859 C-31.6181652 19.12727827 -31.6181652 19.12727827 -35 18 C-34.67 17.34 -34.34 16.68 -34 16 C-33.05125 15.690625 -32.1025 15.38125 -31.125 15.0625 C-28.03919223 14.28064053 -28.03919223 14.28064053 -26.5 12.4375 C-24.27674907 10.30688452 -21.98041933 10.3311577 -19 10 C-19 9.34 -19 8.68 -19 8 C-17.68 8 -16.36 8 -15 8 C-13.37485532 6.54166642 -13.37485532 6.54166642 -12 5 C-11.34 5 -10.68 5 -10 5 C-9.67 4.34 -9.34 3.68 -9 3 C-9 3.66 -9 4.32 -9 5 C-4.10437307 3.12297673 -4.10437307 3.12297673 0 0 Z " fill="#474A6F" transform="translate(299,421)"/>
<path d="M0 0 C0.928125 0.2784375 0.928125 0.2784375 1.875 0.5625 C4.04160178 1.23686176 4.04160178 1.23686176 6 0 C6.39832031 0.73734375 6.79664063 1.4746875 7.20703125 2.234375 C9.10130493 5.15626121 11.03867819 7.00453096 13.6875 9.25 C20.7618297 15.45808524 26.70774019 22.22699341 32 30 C31.67 30.66 31.34 31.32 31 32 C25.42857143 26.85714286 25.42857143 26.85714286 25 23 C23.9275 22.814375 22.855 22.62875 21.75 22.4375 C19.30960856 21.76923865 18.2431191 21.3033734 16.64453125 19.30859375 C15.67912119 17.58340249 14.83056012 15.79400985 14 14 C13.34 14 12.68 14 12 14 C9.69363725 11.69363725 7.82224023 9.73336035 6 7 C5.34 6.71125 4.68 6.4225 4 6.125 C1.28559559 4.59814752 0.91416653 2.89486068 0 0 Z " fill="#962F63" transform="translate(280,32)"/>
<path d="M0 0 C0.66 0.66 1.32 1.32 2 2 C1.9765625 4.3828125 1.9765625 4.3828125 1.625 7.125 C1.45871094 8.49011719 1.45871094 8.49011719 1.2890625 9.8828125 C1.14597656 10.93082031 1.14597656 10.93082031 1 12 C0.34 12 -0.32 12 -1 12 C-1.33 11.34 -1.66 10.68 -2 10 C-3.98 10.99 -3.98 10.99 -6 12 C-5.67 14.31 -5.34 16.62 -5 19 C-4.01902344 18.82597656 -3.03804687 18.65195312 -2.02734375 18.47265625 C2.18861129 17.87037696 6.20682745 18.1007493 10.4375 18.4375 C11.16904297 18.48970703 11.90058594 18.54191406 12.65429688 18.59570312 C14.43668622 18.72384876 16.2184257 18.8609816 18 19 C18 19.33 18 19.66 18 20 C11.67956486 20.92947576 5.50942943 21.18305402 -0.875 21.1875 C-1.82375 21.19974609 -2.7725 21.21199219 -3.75 21.22460938 C-4.65492188 21.22654297 -5.55984375 21.22847656 -6.4921875 21.23046875 C-7.31058105 21.23457764 -8.12897461 21.23868652 -8.97216797 21.24291992 C-11 21 -11 21 -13 19 C-12.34 18.67 -11.68 18.34 -11 18 C-10.87625 17.4225 -10.7525 16.845 -10.625 16.25 C-9.77260827 13.18138976 -8.10089267 11.35554632 -6 9 C-5.34 8.67 -4.68 8.34 -4 8 C-2.87775145 6.11986894 -2.87775145 6.11986894 -1.875 3.9375 C-1.52179688 3.20402344 -1.16859375 2.47054688 -0.8046875 1.71484375 C-0.53914062 1.14894531 -0.27359375 0.58304687 0 0 Z " fill="#4A7BB7" transform="translate(166,420)"/>
<path d="M0 0 C4 0 4 0 5.75 1.375 C7 3 7 3 7 5 C7.99 5 8.98 5 10 5 C11.04625409 6.29735507 12.04701223 7.63266972 13 9 C13.66 9.33 14.32 9.66 15 10 C15 10.66 15 11.32 15 12 C15.84884766 12.29003906 15.84884766 12.29003906 16.71484375 12.5859375 C17.44832031 12.84632813 18.18179688 13.10671875 18.9375 13.375 C19.66839844 13.63023437 20.39929688 13.88546875 21.15234375 14.1484375 C23 15 23 15 24 17 C24.804375 17.309375 25.60875 17.61875 26.4375 17.9375 C29 19 29 19 31 22 C20.07114738 20.53074357 8.71574523 10.48959407 1 3 C0.67 2.01 0.34 1.02 0 0 Z " fill="#813B80" transform="translate(177,179)"/>
<path d="M0 0 C0.66 0 1.32 0 2 0 C-1.16017404 13.83269162 -7.34733934 26.74388392 -16 38 C-16.66 37.67 -17.32 37.34 -18 37 C-17.41992188 36.16339844 -16.83984375 35.32679688 -16.2421875 34.46484375 C-10.50822821 25.99550791 -6.46352359 17.60239714 -3 8 C-2.37641132 6.35363141 -1.75173302 4.70767418 -1.125 3.0625 C-0.75375 2.051875 -0.3825 1.04125 0 0 Z " fill="#5F5E81" transform="translate(342,363)"/>
<path d="M0 0 C0.66 0 1.32 0 2 0 C5.9744222 6.52438334 8.21195088 13.45848932 10.3125 20.75 C10.57885254 21.66096436 10.84520508 22.57192871 11.11962891 23.51049805 C12.40646787 28.11582684 13.34394631 32.1687541 13 37 C12.34 36.67 11.68 36.34 11 36 C10.3133414 33.39429553 9.72694079 30.82395359 9.1875 28.1875 C7.75849961 21.63115269 5.85589433 15.68309011 3.10546875 9.5390625 C1.74088204 6.40485274 0.82777065 3.31108259 0 0 Z " fill="#A44271" transform="translate(313,64)"/>
<path d="M0 0 C0 0.33 0 0.66 0 1 C-0.76554199 1.0501123 -1.53108398 1.10022461 -2.31982422 1.15185547 C-5.83870705 1.38609356 -9.35681735 1.63047901 -12.875 1.875 C-14.07898438 1.95363281 -15.28296875 2.03226563 -16.5234375 2.11328125 C-28.82856027 2.59364085 -28.82856027 2.59364085 -40 7 C-41.32 7 -42.64 7 -44 7 C-44 6.01 -44 5.02 -44 4 C-29.68961816 -0.77012728 -14.8838296 -0.25005141 0 0 Z " fill="#893C73" transform="translate(250,20)"/>
<path d="M0 0 C1.35593262 -0.00797607 1.35593262 -0.00797607 2.73925781 -0.01611328 C7.228846 0.03179135 10.86583342 0.18778418 14.9375 2.3125 C11.87064127 3.21574079 9.19828047 3.40700199 6.0078125 3.33984375 C4.57610718 3.31954102 4.57610718 3.31954102 3.11547852 3.29882812 C2.10799561 3.28271484 1.1005127 3.26660156 0.0625 3.25 C-8.86229994 3.16591615 -17.27883474 3.60752511 -26.0625 5.3125 C-25.0625 3.3125 -25.0625 3.3125 -22.640625 2.4609375 C-15.0086514 0.68730983 -7.82160053 0.02307657 0 0 Z " fill="#9A5889" transform="translate(239.0625,17.6875)"/>
<path d="M0 0 C2.0625 0.4375 2.0625 0.4375 4 1 C3.265611 2.32129824 2.51183106 3.63183171 1.75 4.9375 C1.33234375 5.66839844 0.9146875 6.39929688 0.484375 7.15234375 C-1.28983037 9.36076254 -2.27439538 9.52410078 -5 10 C-7.2072358 11.48800372 -7.2072358 11.48800372 -9 13 C-10.32 12.34 -11.64 11.68 -13 11 C-11.68 10.67 -10.36 10.34 -9 10 C-9.33 9.01 -9.66 8.02 -10 7 C-9.34 7 -8.68 7 -8 7 C-7.773125 6.195625 -7.54625 5.39125 -7.3125 4.5625 C-6.879375 3.716875 -6.44625 2.87125 -6 2 C-3.4375 1.25 -3.4375 1.25 -1 1 C-0.67 0.67 -0.34 0.34 0 0 Z " fill="#474872" transform="translate(314,407)"/>
<path d="M0 0 C0.33 0 0.66 0 1 0 C1.09796875 0.66644531 1.1959375 1.33289063 1.296875 2.01953125 C3.11612021 13.23298234 5.78020804 21.91370814 14 30 C14.56589844 30.5671875 15.13179687 31.134375 15.71484375 31.71875 C16.13894531 32.1415625 16.56304688 32.564375 17 33 C15.515 33.495 15.515 33.495 14 34 C6.63971638 26.27444175 0.70563541 18.74550309 -1 8 C-0.86798637 5.25128761 -0.48559154 2.71931264 0 0 Z " fill="#4C4E68" transform="translate(15,398)"/>
<path d="M0 0 C3.02089478 -0.02716089 6.04154129 -0.04691657 9.0625 -0.0625 C9.91005859 -0.07087891 10.75761719 -0.07925781 11.63085938 -0.08789062 C16.5361722 -0.10683006 21.16444755 0.16673655 26 1 C26 1.33 26 1.66 26 2 C8.14350797 4.48063781 8.14350797 4.48063781 0 3 C-0.33 3.66 -0.66 4.32 -1 5 C-0.67 3.35 -0.34 1.7 0 0 Z " fill="#6188B7" transform="translate(153,225)"/>
<path d="M0 0 C11.98147811 0.42790993 23.93951663 5.6842521 34 12 C33.67 12.99 33.34 13.98 33 15 C32.26136719 14.54109375 31.52273438 14.0821875 30.76171875 13.609375 C22.78073625 8.78224962 14.97934675 5.34102605 6 2.875 C3 2 3 2 0 0 Z " fill="#9B4179" transform="translate(251,19)"/>
<path d="M0 0 C0.99 0 1.98 0 3 0 C-1.06153628 9.13845662 -9.24159686 15.13471484 -17 21 C-17.66 20.67 -18.32 20.34 -19 20 C-18.52949219 19.62488281 -18.05898438 19.24976563 -17.57421875 18.86328125 C-13.88211118 15.82856757 -11.35598023 13.21596462 -9 9 C-8.34 9 -7.68 9 -7 9 C-6.67 8.34 -6.34 7.68 -6 7 C-5.360625 6.54625 -4.72125 6.0925 -4.0625 5.625 C-1.86726715 3.8954226 -1.05542364 2.55060713 0 0 Z " fill="#892859" transform="translate(305,172)"/>
<path d="M0 0 C4.18755825 3.51175635 8.133804 7.133804 12 11 C16.98556531 15.67261857 22.07909638 19.58288275 28 23 C27.34 23.33 26.68 23.66 26 24 C19.20916539 20.79630936 13.45252335 15.88746269 7.9375 10.875 C7.37764404 10.37266846 6.81778809 9.87033691 6.2409668 9.3527832 C3.16318174 6.47460246 1.19866849 4.06504967 0 0 Z " fill="#642066" transform="translate(171,174)"/>
<path d="M0 0 C0 0.33 0 0.66 0 1 C-6.32043514 1.92947576 -12.49057057 2.18305402 -18.875 2.1875 C-19.82375 2.19974609 -20.7725 2.21199219 -21.75 2.22460938 C-22.65492188 2.22654297 -23.55984375 2.22847656 -24.4921875 2.23046875 C-25.31058105 2.23457764 -26.12897461 2.23868652 -26.97216797 2.24291992 C-29 2 -29 2 -31 0 C-20.65692201 -1.54197264 -10.38086071 -0.66087752 0 0 Z " fill="#6285B3" transform="translate(184,439)"/>
<path d="M0 0 C0.99 0.495 0.99 0.495 2 1 C3.6023312 8.85142288 3.08712733 17.0230091 3 25 C2.34 25 1.68 25 1 25 C0.31728707 16.64895793 -0.15392039 8.38011029 0 0 Z " fill="#5C5C7C" transform="translate(345,315)"/>
<path d="M0 0 C0.99 0.66 1.98 1.32 3 2 C2.01 3.485 2.01 3.485 1 5 C1.495 5.886875 1.99 6.77375 2.5 7.6875 C3.99117066 10.98050188 4.17969108 12.496024 4 16 C4.29749946 17.67343448 4.62127066 19.34305915 5 21 C2.3458221 17.84388587 1.07732936 14.84829424 -0.1875 10.9375 C-0.70376953 9.37322266 -0.70376953 9.37322266 -1.23046875 7.77734375 C-2 5 -2 5 -2 2 C-1.34 2 -0.68 2 0 2 C0 1.34 0 0.68 0 0 Z " fill="#79418E" transform="translate(156,134)"/>
<path d="M0 0 C0 0.33 0 0.66 0 1 C-12.5 3.5 -12.5 3.5 -25 6 C-19.04837443 -0.7640697 -8.28855621 -1.49194012 0 0 Z " fill="#676A7E" transform="translate(86,8)"/>
<path d="M0 0 C-7.88067292 3.3266775 -15.28314715 6.43584264 -24 6 C-22.68 5.67 -21.36 5.34 -20 5 C-20.33 4.01 -20.66 3.02 -21 2 C-20.00419922 2.03480469 -20.00419922 2.03480469 -18.98828125 2.0703125 C-14.16029839 2.1689866 -10.40437029 2.20218514 -6 0 C-2.31578947 -1.15789474 -2.31578947 -1.15789474 0 0 Z " fill="#92316E" transform="translate(273,200)"/>
<path d="M0 0 C0.25 7.625 0.25 7.625 -2 11 C-5.22265625 5.82421875 -5.22265625 5.82421875 -6 4 C-5.67 3.01 -5.34 2.02 -5 1 C-3 0 -3 0 0 0 Z " fill="#7E3F8D" transform="translate(167,153)"/>
<path d="M0 0 C0.66 0.99 1.32 1.98 2 3 C3.0828125 4.3921875 3.0828125 4.3921875 4.1875 5.8125 C6 9 6 9 5.75 12.375 C5.5025 13.24125 5.255 14.1075 5 15 C4.34 14.67 3.68 14.34 3 14 C2.375 11.4375 2.375 11.4375 2 9 C1.34 9 0.68 9 0 9 C-0.66 6.69 -1.32 4.38 -2 2 C-1.34 2 -0.68 2 0 2 C0 1.34 0 0.68 0 0 Z " fill="#464467" transform="translate(330,272)"/>
<path d="M0 0 C0.66 0 1.32 0 2 0 C2 3.3 2 6.6 2 10 C1.34 10 0.68 10 0 10 C-0.33 10.99 -0.66 11.98 -1 13 C-2.5 11.6875 -2.5 11.6875 -4 10 C-4 9.01 -4 8.02 -4 7 C-3.34 7 -2.68 7 -2 7 C-1.34 4.69 -0.68 2.38 0 0 Z " fill="#46456D" transform="translate(342,353)"/>
<path d="M0 0 C0.5775 0.226875 1.155 0.45375 1.75 0.6875 C-0.88848309 4.30319905 -3.20293333 6.71585214 -7.25 8.6875 C-8.24 8.6875 -9.23 8.6875 -10.25 8.6875 C-4.45909091 -0.61931818 -4.45909091 -0.61931818 0 0 Z " fill="#7C437E" transform="translate(189.25,35.3125)"/>
<path d="M0 0 C8.34276023 0.6067462 14.98342771 3.47317917 22 8 C21.01 8.495 21.01 8.495 20 9 C17.4609375 8.109375 17.4609375 8.109375 14.375 6.75 C9.62152426 4.69397856 4.86371153 2.77712537 0 1 C0 0.67 0 0.34 0 0 Z " fill="#8A3767" transform="translate(256,22)"/>
<path d="M0 0 C0.66 0 1.32 0 2 0 C2.67736481 2.03814233 3.34143534 4.08070555 4 6.125 C4.37125 7.26195313 4.7425 8.39890625 5.125 9.5703125 C5.96911949 12.87895941 6.16509276 15.60528016 6 19 C4 18 4 18 3.40576172 16.23413086 C3.24865723 15.48526611 3.09155273 14.73640137 2.9296875 13.96484375 C2.75566406 13.15595703 2.58164062 12.34707031 2.40234375 11.51367188 C2.14130859 10.2384668 2.14130859 10.2384668 1.875 8.9375 C1.69324219 8.08349609 1.51148438 7.22949219 1.32421875 6.34960938 C0.87523658 4.23466704 0.43664649 2.11752353 0 0 Z " fill="#973D6C" transform="translate(320,82)"/>
<path d="M0 0 C0 3.10551666 -0.5393715 4.35261084 -2 7 C-0.68 7.33 0.64 7.66 2 8 C-0.57213134 9.61949011 -1.67669159 10.04408751 -4.75 9.625 C-5.86375 9.315625 -5.86375 9.315625 -7 9 C-6.82374165 6.62051228 -6.30280227 5.29774151 -4.59765625 3.62109375 C-3.09350908 2.37884514 -1.54870149 1.18623944 0 0 Z " fill="#5479A6" transform="translate(157,431)"/>
<path d="M0 0 C3.63 0.33 7.26 0.66 11 1 C11.33 2.65 11.66 4.3 12 6 C11.175 5.67 10.35 5.34 9.5 5 C5.4126017 3.83217191 2.23076656 3.8541115 -2 4 C-1.34 3.67 -0.68 3.34 0 3 C0 2.01 0 1.02 0 0 Z " fill="#4D537D" transform="translate(250,225)"/>
<path d="M0 0 C0.66 0.33 1.32 0.66 2 1 C-6.07744875 8.85193622 -6.07744875 8.85193622 -12 9 C-8.33494586 5.00175912 -4.88887148 2.39831431 0 0 Z " fill="#923065" transform="translate(292,185)"/>
<path d="M0 0 C-0.33 0.99 -0.66 1.98 -1 3 C-1.66 3 -2.32 3 -3 3 C-3 3.66 -3 4.32 -3 5 C-4.1875 6.625 -4.1875 6.625 -6 8 C-8.6875 8.1875 -8.6875 8.1875 -11 8 C-9.94434467 4.71573897 -8.38339648 3.42848444 -5.5 1.75 C-2 0 -2 0 0 0 Z " fill="#894883" transform="translate(205,25)"/>
<path d="M0 0 C0.28875 0.598125 0.5775 1.19625 0.875 1.8125 C2.04742026 4.19327792 2.04742026 4.19327792 4 7 C3.9765625 9.48046875 3.9765625 9.48046875 3.625 12.1875 C3.51414063 13.08855469 3.40328125 13.98960937 3.2890625 14.91796875 C3.19367188 15.60503906 3.09828125 16.29210937 3 17 C2.34 17 1.68 17 1 17 C-0.14806378 5.47835991 -0.14806378 5.47835991 0 0 Z " fill="#5176A8" transform="translate(161,257)"/>
<path d="M0 0 C0.99 0 1.98 0 3 0 C2.58578031 4.83256305 0.53586014 6.82679218 -3 10 C-3 6.60345276 -2.51816587 2.51816587 0 0 Z " fill="#8D315E" transform="translate(311,161)"/>
<path d="M0 0 C0.66 0 1.32 0 2 0 C0.125 5.875 0.125 5.875 -1 7 C-0.67 7.66 -0.34 8.32 0 9 C-0.66 9 -1.32 9 -2 9 C-2.33 10.32 -2.66 11.64 -3 13 C-3.99 12.67 -4.98 12.34 -6 12 C-4.02 8.04 -2.04 4.08 0 0 Z " fill="#7F3F8F" transform="translate(168,59)"/>
<path d="M0 0 C0.33 0 0.66 0 1 0 C1.06058594 1.24136719 1.12117187 2.48273438 1.18359375 3.76171875 C1.26803623 5.40365577 1.35268236 7.04558232 1.4375 8.6875 C1.47681641 9.50412109 1.51613281 10.32074219 1.55664062 11.16210938 C1.76898003 15.19655811 2.04447922 19.05747309 3 23 C2.34 23.33 1.68 23.66 1 24 C1 23.34 1 22.68 1 22 C0.34 21.67 -0.32 21.34 -1 21 C-0.67 14.07 -0.34 7.14 0 0 Z " fill="#76438F" transform="translate(152,111)"/>
<path d="M0 0 C-0.33 0.99 -0.66 1.98 -1 3 C-0.34 3.33 0.32 3.66 1 4 C-2.3 4 -5.6 4 -9 4 C-9 3.01 -9 2.02 -9 1 C-5.8035914 -0.06546953 -3.34252724 -0.07427838 0 0 Z " fill="#4F537B" transform="translate(265,436)"/>
<path d="M0 0 C2.47859908 2.2008849 3.61210366 4.06372969 4.6875 7.1875 C4.93886719 7.90292969 5.19023437 8.61835938 5.44921875 9.35546875 C5.63097656 9.89816406 5.81273437 10.44085938 6 11 C5.01 11.495 5.01 11.495 4 12 C3.54625 11.05125 3.0925 10.1025 2.625 9.125 C1.19761746 5.99686321 1.19761746 5.99686321 -1 4 C-0.625 1.875 -0.625 1.875 0 0 Z " fill="#505077" transform="translate(335,283)"/>
<path d="M0 0 C0.66 0.33 1.32 0.66 2 1 C-3 7.57142857 -3 7.57142857 -8 9 C-7.875 7.25 -7.875 7.25 -7 5 C-4 2.8125 -4 2.8125 -1 1 C-0.67 0.67 -0.34 0.34 0 0 Z " fill="#813E87" transform="translate(184,41)"/>
<path d="M0 0 C1.46300982 0.93018526 2.92025579 1.86944027 4.375 2.8125 C5.18710937 3.33457031 5.99921875 3.85664062 6.8359375 4.39453125 C9 6 9 6 11 9 C7.25983417 9 6.54723807 8.0658409 3.8125 5.625 C3.09707031 4.99851562 2.38164062 4.37203125 1.64453125 3.7265625 C0 2 0 2 0 0 Z " fill="#994878" transform="translate(286,33)"/>
<path d="M0 0 C4.95 0.99 4.95 0.99 10 2 C10 2.66 10 3.32 10 4 C7.03 3.67 4.06 3.34 1 3 C0.67 2.01 0.34 1.02 0 0 Z " fill="#3C405A" transform="translate(42,437)"/>
<path d="M0 0 C0.33 0 0.66 0 1 0 C1 4.62 1 9.24 1 14 C1.66 14 2.32 14 3 14 C2.67 15.32 2.34 16.64 2 18 C1.01 17.34 0.02 16.68 -1 16 C-1.05632424 13.19564589 -0.95814702 10.64853322 -0.6875 7.875 C-0.62626953 7.12089844 -0.56503906 6.36679687 -0.50195312 5.58984375 C-0.3485467 3.72536562 -0.17606541 1.86247502 0 0 Z " fill="#4E4C6C" transform="translate(345,326)"/>
<path d="M0 0 C3.00617269 3.00617269 2.59585316 5.82381598 3 10 C2.01 10.495 2.01 10.495 1 11 C0.67 8.36 0.34 5.72 0 3 C-0.99 2.67 -1.98 2.34 -3 2 C-2.01 1.34 -1.02 0.68 0 0 Z " fill="#464569" transform="translate(341,302)"/>
<path d="M0 0 C5.27315333 0.4452885 10.01770224 1.08373163 15 3 C15 3.33 15 3.66 15 4 C13.24908981 3.91245449 11.49920449 3.80426627 9.75 3.6875 C8.77546875 3.62949219 7.8009375 3.57148438 6.796875 3.51171875 C3.74658389 2.95363476 2.29288724 2.03630224 0 0 Z " fill="#9E4C7D" transform="translate(251,19)"/>
<path d="M0 0 C-1.11666174 3.34998521 -1.74694925 3.79340222 -4.5625 5.6875 C-5.20316406 6.12449219 -5.84382813 6.56148438 -6.50390625 7.01171875 C-6.99761719 7.33785156 -7.49132812 7.66398437 -8 8 C-8.66 7.67 -9.32 7.34 -10 7 C-3.18421053 0 -3.18421053 0 0 0 Z " fill="#58597A" transform="translate(312,415)"/>
<path d="M0 0 C0.33 1.32 0.66 2.64 1 4 C-0.65 5.32 -2.3 6.64 -4 8 C-4.99 7.34 -5.98 6.68 -7 6 C-7 5.34 -7 4.68 -7 4 C-3.535 3.505 -3.535 3.505 0 3 C0 2.01 0 1.02 0 0 Z " fill="#973064" transform="translate(303,172)"/>
<path d="M0 0 C0.66 0 1.32 0 2 0 C1.54177532 3.46941546 1.10868317 6.67395049 0 10 C-0.66 10 -1.32 10 -2 10 C-1.54177532 6.53058454 -1.10868317 3.32604951 0 0 Z " fill="#4D5268" transform="translate(18,56)"/>
<path d="M0 0 C1.98 0.99 1.98 0.99 4 2 C3.67 3.98 3.34 5.96 3 8 C2.34 8 1.68 8 1 8 C0.67 5.36 0.34 2.72 0 0 Z " fill="#4A7EC1" transform="translate(155,229)"/>
<path d="M0 0 C0.66 0.66 1.32 1.32 2 2 C-2.75 6.875 -2.75 6.875 -5 8 C-5 6.35 -5 4.7 -5 3 C-4.01 3.495 -4.01 3.495 -3 4 C-2.01 2.68 -1.02 1.36 0 0 Z " fill="#3A3C53" transform="translate(30,39)"/>
<path d="M0 0 C0.99 0 1.98 0 3 0 C1.66666667 2.66666667 0.33333333 5.33333333 -1 8 C-1.99 7.67 -2.98 7.34 -4 7 C-3.67 6.34 -3.34 5.68 -3 5 C-2.34 5 -1.68 5 -1 5 C-0.67 3.35 -0.34 1.7 0 0 Z " fill="#49476F" transform="translate(326,392)"/>
<path d="M0 0 C-1.57725347 0.70133599 -3.16211333 1.385583 -4.75 2.0625 C-5.63171875 2.44535156 -6.5134375 2.82820312 -7.421875 3.22265625 C-10.15256309 4.04600008 -11.36901347 3.9773992 -14 3 C-3.48453608 -1.74226804 -3.48453608 -1.74226804 0 0 Z " fill="#8A3266" transform="translate(273,200)"/>
<path d="M0 0 C0.66 0.66 1.32 1.32 2 2 C2.66 1.67 3.32 1.34 4 1 C4 2.65 4 4.3 4 6 C3.34 6 2.68 6 2 6 C1.34 6.66 0.68 7.32 0 8 C0 5.36 0 2.72 0 0 Z " fill="#7E3F95" transform="translate(154,90)"/>
<path d="M0 0 C0.99 0.33 1.98 0.66 3 1 C3 3.64 3 6.28 3 9 C2.01 8.67 1.02 8.34 0 8 C-1.09658936 4.71023192 -0.79953138 3.28696233 0 0 Z " fill="#49476D" transform="translate(338,293)"/>
<path d="M0 0 C1.32 0.66 2.64 1.32 4 2 C2 4 2 4 -0.625 4.125 C-1.40875 4.08375 -2.1925 4.0425 -3 4 C-2.01 2.68 -1.02 1.36 0 0 Z " fill="#444767" transform="translate(299,421)"/>
<path d="M0 0 C-2.66666667 1.33333333 -5.33333333 2.66666667 -8 4 C-8 2.68 -8 1.36 -8 0 C-5.13822943 -1.43088528 -3.06624227 -0.59991697 0 0 Z " fill="#9F2D6F" transform="translate(281,194)"/>
<path d="M0 0 C0 2.31 0 4.62 0 7 C-1.32 6.34 -2.64 5.68 -4 5 C-3.625 3.0625 -3.625 3.0625 -3 1 C-1 0 -1 0 0 0 Z " fill="#A02A57" transform="translate(327,118)"/>
</svg>
